<?xml version="1.0" encoding="UTF-8"?>
<!DOCTYPE svg PUBLIC "-//W3C//DTD SVG 1.1//EN" "http://www.w3.org/Graphics/SVG/1.1/DTD/svg11.dtd">
<!-- Creator: CorelDRAW X6 -->
<svg xmlns="http://www.w3.org/2000/svg" xml:space="preserve" width="3.63889in" height="1.86111in" version="1.1" style="shape-rendering:geometricPrecision; text-rendering:geometricPrecision; image-rendering:optimizeQuality; fill-rule:evenodd; clip-rule:evenodd"
viewBox="0 0 3639 1861"
 xmlns:xlink="http://www.w3.org/1999/xlink">
 <defs>
  <style type="text/css">
   <![CDATA[
    .str0 {stroke:#FEFEFE;stroke-width:13.8898}
    .fil1 {fill:none;fill-rule:nonzero}
    .fil0 {fill:#373435;fill-rule:nonzero}
    .fil2 {fill:#FEFEFE;fill-rule:nonzero}
   ]]>
  </style>
 </defs>
 <g id="Layer_x0020_1">
  <metadata id="CorelCorpID_0Corel-Layer"/>
  <path class="fil0" d="M1320 653c0,365 -296,660 -660,660 -365,0 -660,-295 -660,-660 0,-359 287,-652 645,-660l31 0c357,8 645,300 645,660z"/>
  <path class="fil0" d="M2483 653c0,365 -296,660 -660,660 -365,0 -660,-295 -660,-660 0,-359 287,-652 645,-660l31 0c357,8 645,300 645,660z"/>
  <path class="fil0" d="M3649 653c0,365 -296,660 -660,660 -365,0 -660,-295 -660,-660 0,-359 287,-652 645,-660l31 0c357,8 645,300 645,660z"/>
  <path class="fil0" d="M242 1701l6 0 -12 47 -137 0 0 -6c8,0 13,-3 17,-8 3,-5 5,-15 5,-28l0 -135c0,-12 -2,-20 -5,-24 -3,-5 -9,-7 -17,-7l0 -6 68 0 0 6c-8,0 -13,3 -16,8 -3,5 -5,14 -5,26l0 144c0,8 1,13 4,16 3,3 9,4 17,4l38 0c12,0 20,-2 24,-7 5,-5 9,-14 13,-30z"/>
  <path class="fil0" d="M288 1542c4,0 7,2 10,5 3,3 4,7 4,11 0,5 -1,8 -4,12 -3,3 -6,5 -10,5 -4,0 -7,-2 -10,-5 -3,-3 -4,-7 -4,-12 0,-5 1,-8 4,-11 3,-3 6,-5 10,-5zm5 69l6 0 0 112c0,7 1,12 4,15 3,2 8,4 15,4l0 6 -64 0 0 -6c9,0 15,-1 18,-4 3,-2 4,-7 4,-15l0 -82c0,-8 -1,-13 -4,-16 -2,-3 -9,-4 -18,-4l0 -6 39 -4z"/>
  <path class="fil0" d="M371 1611l0 27c14,-18 28,-27 42,-27 11,0 21,4 28,13 8,9 11,20 11,35l0 60c0,9 1,15 4,18 3,3 8,4 16,4l0 6 -62 0 0 -6c8,0 13,-1 16,-3 3,-2 4,-7 4,-13l0 -69c0,-9 -2,-17 -7,-22 -5,-5 -11,-8 -19,-8 -11,0 -22,9 -33,26l0 65c0,11 1,18 4,21 3,3 8,4 16,4l0 6 -62 0 0 -6c9,0 14,-2 16,-5 2,-3 3,-10 3,-21l0 -75c0,-8 -1,-13 -4,-16 -2,-3 -8,-4 -16,-4l0 -6 36 -4 6 0z"/>
  <path class="fil0" d="M514 1664c0,14 3,26 8,35 5,9 12,13 21,13 9,0 16,-4 21,-13 5,-9 8,-20 8,-35 0,-13 -3,-24 -8,-33 -5,-8 -12,-13 -21,-13 -9,0 -16,4 -21,13 -5,8 -8,19 -8,33zm84 153c0,-9 -5,-15 -14,-20 -10,-5 -28,-10 -54,-15 -23,7 -34,17 -34,31 0,10 6,18 17,24 11,6 25,10 42,10 13,0 24,-3 32,-8 8,-6 12,-13 12,-21zm-25 -205l38 0 0 15 -31 0c9,12 13,25 13,39 0,13 -4,25 -13,36 -9,10 -19,16 -31,17 -8,0 -17,4 -25,9 -8,6 -13,11 -13,15 0,5 2,9 7,11 4,2 15,5 31,9 18,4 31,7 38,10 7,3 13,7 17,13 4,6 6,12 6,19 0,16 -7,29 -21,40 -14,11 -31,16 -51,16 -17,0 -31,-4 -42,-11 -11,-7 -16,-17 -16,-29 0,-8 3,-16 9,-22 6,-7 16,-13 29,-19l0 -1c-8,-2 -14,-5 -19,-10 -5,-4 -7,-9 -7,-15 0,-15 12,-27 36,-36l0 -1c-12,-4 -21,-10 -27,-18 -6,-9 -10,-19 -10,-32 0,-16 5,-29 14,-40 9,-11 21,-16 36,-16 3,0 8,0 15,1 8,0 13,1 15,1z"/>
  <path class="fil0" d="M736 1611l5 0 0 111c0,7 1,12 4,15 3,3 8,4 16,4l0 6 -43 3 0 -24 -1 0c-12,17 -25,26 -41,26 -11,0 -20,-4 -27,-13 -7,-8 -11,-19 -11,-32l0 -68c0,-7 -1,-11 -5,-14 -3,-2 -8,-4 -16,-4l0 -6 38 -4 6 0 0 95c0,9 2,17 7,22 5,5 11,8 19,8 11,0 21,-7 31,-22l0 -72c0,-9 -1,-15 -4,-17 -2,-2 -9,-4 -19,-4l0 -6 40 -4z"/>
  <path class="fil0" d="M804 1542c4,0 7,2 10,5 3,3 4,7 4,11 0,5 -1,8 -4,12 -3,3 -6,5 -10,5 -4,0 -7,-2 -10,-5 -3,-3 -4,-7 -4,-12 0,-5 1,-8 4,-11 3,-3 6,-5 10,-5zm5 69l6 0 0 112c0,7 1,12 4,15 3,2 8,4 15,4l0 6 -64 0 0 -6c9,0 15,-1 18,-4 3,-2 4,-7 4,-15l0 -82c0,-8 -1,-13 -4,-16 -2,-3 -9,-4 -18,-4l0 -6 39 -4z"/>
  <path class="fil0" d="M928 1611l0 41 -7 0c-1,-10 -4,-18 -10,-24 -5,-6 -12,-9 -20,-9 -6,0 -10,2 -14,5 -4,3 -5,8 -5,13 0,5 2,10 5,14 3,4 10,9 21,15 14,7 24,14 28,21 5,7 7,15 7,24 0,11 -4,21 -11,29 -7,8 -16,12 -26,12 -5,0 -12,-2 -20,-6 -5,-2 -8,-3 -9,-3 -2,0 -4,1 -5,3 -1,2 -2,4 -2,6l-6 0 0 -45 6 0c2,12 7,21 14,28 7,7 15,11 24,11 6,0 11,-2 15,-7 4,-4 6,-10 6,-16 0,-6 -2,-12 -5,-16 -4,-5 -11,-10 -23,-16 -14,-7 -22,-13 -27,-19 -4,-6 -6,-13 -6,-21 0,-10 4,-19 11,-27 7,-8 15,-11 25,-11 5,0 9,1 15,4 4,2 7,3 9,3 3,0 5,-2 7,-6l6 0z"/>
  <path class="fil0" d="M989 1570l6 0 0 45 41 0 0 10 -41 0 0 86c0,9 2,16 5,21 4,5 9,7 16,7 8,0 15,-4 22,-13l4 5c-10,15 -22,22 -35,22 -10,0 -18,-4 -24,-11 -6,-7 -9,-16 -9,-28l0 -89 -22 0 0 -6c16,-9 29,-25 39,-48z"/>
  <path class="fil0" d="M1079 1542c4,0 7,2 10,5 3,3 4,7 4,11 0,5 -1,8 -4,12 -3,3 -6,5 -10,5 -4,0 -7,-2 -10,-5 -3,-3 -4,-7 -4,-12 0,-5 1,-8 4,-11 3,-3 6,-5 10,-5zm5 69l6 0 0 112c0,7 1,12 4,15 3,2 8,4 15,4l0 6 -64 0 0 -6c9,0 15,-1 18,-4 3,-2 4,-7 4,-15l0 -82c0,-8 -1,-13 -4,-16 -2,-3 -9,-4 -18,-4l0 -6 39 -4z"/>
  <path class="fil0" d="M1235 1611l0 47 -6 0c-2,-12 -7,-22 -14,-29 -7,-7 -15,-11 -25,-11 -12,0 -21,5 -28,15 -7,10 -11,24 -11,40 0,18 4,34 13,47 9,13 19,20 31,20 8,0 16,-2 24,-7 8,-5 14,-12 20,-20l0 10c-13,20 -30,29 -52,29 -17,0 -31,-6 -42,-19 -11,-12 -16,-29 -16,-49 0,-20 6,-38 18,-52 12,-14 26,-21 43,-21 7,0 16,2 25,5 4,1 7,2 8,2 3,0 6,-2 8,-7l6 0z"/>
  <path class="fil0" d="M1430 1529l5 0 0 50 -6 0c-1,-14 -6,-25 -13,-33 -8,-8 -17,-12 -29,-12 -10,0 -18,3 -25,9 -6,6 -9,14 -9,23 0,9 3,17 8,25 5,7 16,17 34,29 20,14 33,25 40,36 7,10 10,22 10,35 0,17 -5,31 -16,43 -11,12 -23,18 -38,18 -9,0 -20,-3 -33,-8 -5,-2 -9,-3 -10,-3 -3,0 -6,3 -7,8l-6 0 0 -58 6 0c0,16 5,29 14,38 9,10 20,14 32,14 11,0 21,-3 28,-10 7,-7 10,-16 10,-28 0,-9 -3,-17 -9,-25 -6,-8 -18,-18 -36,-31 -15,-10 -25,-19 -30,-24 -5,-6 -9,-13 -11,-20 -2,-7 -4,-15 -4,-24 0,-17 5,-30 14,-40 10,-10 22,-15 37,-15 8,0 18,2 27,6 5,2 8,3 10,3 2,0 3,0 3,-1 1,-1 1,-2 2,-5z"/>
  <path class="fil0" d="M1570 1682c0,-19 -4,-34 -11,-46 -7,-12 -17,-17 -29,-17 -12,0 -22,6 -29,17 -7,11 -11,27 -11,46 0,19 4,34 11,46 7,11 17,17 29,17 12,0 22,-6 29,-17 7,-11 11,-27 11,-45zm24 0c0,20 -6,37 -18,50 -12,13 -27,20 -46,20 -18,0 -33,-7 -46,-20 -12,-13 -18,-30 -18,-50 0,-20 6,-37 18,-50 12,-13 27,-20 46,-20 18,0 34,7 46,20 12,13 18,30 18,50z"/>
  <path class="fil0" d="M1725 1611l0 47 -6 0c-2,-12 -7,-22 -14,-29 -7,-7 -15,-11 -25,-11 -12,0 -21,5 -28,15 -7,10 -11,24 -11,40 0,18 4,34 13,47 9,13 19,20 31,20 8,0 16,-2 24,-7 8,-5 14,-12 20,-20l0 10c-13,20 -30,29 -52,29 -17,0 -31,-6 -42,-19 -11,-12 -16,-29 -16,-49 0,-20 6,-38 18,-52 12,-14 26,-21 43,-21 7,0 16,2 25,5 4,1 7,2 8,2 3,0 6,-2 8,-7l6 0z"/>
  <path class="fil0" d="M1772 1542c4,0 7,2 10,5 3,3 4,7 4,11 0,5 -1,8 -4,12 -3,3 -6,5 -10,5 -4,0 -7,-2 -10,-5 -3,-3 -4,-7 -4,-12 0,-5 1,-8 4,-11 3,-3 6,-5 10,-5zm5 69l6 0 0 112c0,7 1,12 4,15 3,2 8,4 15,4l0 6 -64 0 0 -6c9,0 15,-1 18,-4 3,-2 4,-7 4,-15l0 -82c0,-8 -1,-13 -4,-16 -2,-3 -9,-4 -18,-4l0 -6 39 -4z"/>
  <path class="fil0" d="M1844 1660l64 0 0 -3c0,-12 -3,-21 -9,-28 -6,-7 -13,-10 -22,-10 -9,0 -17,4 -23,11 -6,7 -9,17 -10,30zm88 53l0 10c-7,10 -14,18 -22,22 -7,4 -16,7 -27,7 -18,0 -33,-6 -45,-19 -12,-13 -18,-30 -18,-50 0,-20 6,-37 17,-51 11,-14 25,-21 42,-21 14,0 25,5 35,16 10,10 15,23 15,37l0 3 -86 0 0 2c0,15 2,27 6,38 4,11 10,19 17,25 8,6 15,9 24,9 8,0 14,-2 20,-5 5,-4 13,-11 22,-22z"/>
  <path class="fil0" d="M1987 1570l6 0 0 45 41 0 0 10 -41 0 0 86c0,9 2,16 5,21 4,5 9,7 16,7 8,0 15,-4 22,-13l4 5c-10,15 -22,22 -35,22 -10,0 -18,-4 -24,-11 -6,-7 -9,-16 -9,-28l0 -89 -22 0 0 -6c16,-9 29,-25 39,-48z"/>
  <path class="fil0" d="M2101 1615l0 6c-7,1 -10,5 -10,12 0,3 1,5 2,9l28 75 20 -70c2,-6 2,-10 2,-14 0,-7 -4,-11 -12,-11l0 -6 41 0 0 6c-6,0 -11,2 -15,7 -4,5 -8,13 -11,24l-47 157c-5,15 -10,27 -17,35 -7,9 -14,13 -22,13 -4,0 -9,-2 -15,-6l8 -23c4,2 8,3 11,3 7,0 13,-2 17,-8 5,-5 9,-13 12,-25l15 -48 -42 -110c-3,-8 -6,-13 -9,-16 -3,-3 -8,-4 -14,-4l0 -6 56 0z"/>
  <path class="fil0" d="M2366 1682c0,-19 -4,-34 -11,-46 -7,-12 -17,-17 -29,-17 -12,0 -22,6 -29,17 -7,11 -11,27 -11,46 0,19 4,34 11,46 7,11 17,17 29,17 12,0 22,-6 29,-17 7,-11 11,-27 11,-45zm24 0c0,20 -6,37 -18,50 -12,13 -27,20 -46,20 -18,0 -33,-7 -46,-20 -12,-13 -18,-30 -18,-50 0,-20 6,-37 18,-50 12,-13 27,-20 46,-20 18,0 34,7 46,20 12,13 18,30 18,50z"/>
  <path class="fil0" d="M2480 1625l-29 0 0 97c0,7 1,12 4,15 3,3 7,5 13,5l5 0 0 6 -66 0 0 -6 5 0c6,0 10,-1 13,-4 2,-3 4,-7 4,-14l0 -99 -16 0 0 -6c8,-3 13,-6 16,-9l0 -26c0,-21 4,-38 13,-51 9,-13 21,-20 37,-20 14,0 25,4 33,11l-11 33 -6 0c0,-2 0,-4 0,-6 0,-10 -2,-17 -6,-23 -4,-5 -9,-8 -16,-8 -7,0 -12,3 -16,8 -4,5 -6,13 -6,23l0 64 29 0 0 10z"/>
  <path class="fil0" d="M2614 1647l53 0 -27 -91 -27 91zm60 100l0 -6c11,0 16,-4 16,-13 0,-2 0,-5 -1,-8l-18 -60 -61 0 -13 43c-3,11 -5,19 -5,24 0,9 5,14 15,14l0 6 -49 0 0 -6c7,-1 12,-4 16,-8 4,-4 8,-13 12,-26l52 -177 19 0 55 185c3,11 7,18 10,21 3,3 9,5 17,5l0 6 -67 0z"/>
  <path class="fil0" d="M2796 1611l0 28 1 0c5,-8 11,-15 19,-20 8,-5 15,-8 23,-8 9,0 16,3 23,8 7,5 11,13 14,22 12,-20 27,-30 43,-30 11,0 21,4 28,12 8,8 11,19 11,33l0 67c0,7 1,12 4,15 3,2 8,4 15,4l0 7 -62 0 0 -7c8,0 14,-2 16,-5 2,-3 4,-10 4,-21l0 -63c0,-9 -2,-15 -7,-20 -5,-5 -11,-7 -19,-7 -12,0 -23,9 -33,26l0 71c0,7 1,12 4,15 3,3 8,4 15,4l0 7 -61 0 0 -7c9,0 14,-2 16,-5 2,-3 3,-10 3,-21l0 -61c0,-9 -2,-16 -7,-21 -5,-5 -11,-8 -18,-8 -6,0 -13,2 -19,7 -6,5 -11,11 -15,19l0 72c0,7 1,12 4,14 3,3 8,4 15,4l0 6 -62 0 0 -7c9,0 14,-2 16,-5 2,-3 3,-9 3,-17l0 -79c0,-7 -1,-12 -4,-15 -3,-3 -7,-5 -12,-5l-7 0 0 -6 40 -4 6 0z"/>
  <path class="fil0" d="M3020 1660l64 0 0 -3c0,-12 -3,-21 -9,-28 -6,-7 -13,-10 -22,-10 -9,0 -17,4 -23,11 -6,7 -9,17 -10,30zm88 53l0 10c-7,10 -14,18 -22,22 -7,4 -16,7 -27,7 -18,0 -33,-6 -45,-19 -12,-13 -18,-30 -18,-50 0,-20 6,-37 17,-51 11,-14 25,-21 42,-21 14,0 25,5 35,16 10,10 15,23 15,37l0 3 -86 0 0 2c0,15 2,27 6,38 4,11 10,19 17,25 8,6 15,9 24,9 8,0 14,-2 20,-5 5,-4 13,-11 22,-22z"/>
  <path class="fil0" d="M3167 1611l0 29c11,-11 19,-18 25,-22 6,-4 11,-6 15,-6 7,0 15,3 21,10l-9 24c-12,-8 -22,-12 -28,-12 -7,0 -15,5 -25,16l0 73c0,7 1,12 4,15 3,3 8,4 15,4l0 6 -62 0 0 -6c8,0 14,-1 16,-4 3,-3 4,-10 4,-21l0 -73c0,-9 -1,-15 -4,-18 -3,-3 -9,-4 -20,-4l0 -6 41 -4 6 0z"/>
  <path class="fil0" d="M3277 1542c4,0 7,2 10,5 3,3 4,7 4,11 0,5 -1,8 -4,12 -3,3 -6,5 -10,5 -4,0 -7,-2 -10,-5 -3,-3 -4,-7 -4,-12 0,-5 1,-8 4,-11 3,-3 6,-5 10,-5zm5 69l6 0 0 112c0,7 1,12 4,15 3,2 8,4 15,4l0 6 -64 0 0 -6c9,0 15,-1 18,-4 3,-2 4,-7 4,-15l0 -82c0,-8 -1,-13 -4,-16 -2,-3 -9,-4 -18,-4l0 -6 39 -4z"/>
  <path class="fil0" d="M3433 1611l0 47 -6 0c-2,-12 -7,-22 -14,-29 -7,-7 -15,-11 -25,-11 -12,0 -21,5 -28,15 -7,10 -11,24 -11,40 0,18 4,34 13,47 9,13 19,20 31,20 8,0 16,-2 24,-7 8,-5 14,-12 20,-20l0 10c-13,20 -30,29 -52,29 -17,0 -31,-6 -42,-19 -11,-12 -16,-29 -16,-49 0,-20 6,-38 18,-52 12,-14 26,-21 43,-21 7,0 16,2 25,5 4,1 7,2 8,2 3,0 6,-2 8,-7l6 0z"/>
  <path class="fil0" d="M3516 1720l0 -45c-3,2 -8,4 -15,6 -12,5 -19,9 -22,13 -3,4 -5,10 -5,18 0,7 2,12 5,17 3,5 8,7 12,7 4,0 9,-2 14,-5 5,-3 8,-7 10,-12zm-31 31c-9,0 -17,-3 -24,-10 -7,-7 -10,-15 -10,-25 0,-9 3,-17 8,-23 6,-6 17,-12 34,-17 11,-3 18,-6 22,-9l0 -10c0,-10 -2,-17 -7,-23 -5,-6 -11,-9 -19,-9 -7,0 -14,3 -19,8 -6,5 -10,12 -12,21l-6 -2c2,-12 8,-22 15,-30 8,-7 17,-11 28,-11 13,0 23,4 31,13 8,9 12,21 12,36l0 57c0,8 0,14 1,16 1,3 3,4 5,4 2,0 3,-1 4,-2 1,-2 2,-5 4,-10l6 0c-1,8 -3,15 -7,20 -4,5 -9,7 -16,7 -10,0 -16,-6 -20,-19 -6,7 -11,12 -15,15 -5,3 -10,4 -16,4z"/>
  <path class="fil1 str0" d="M1184 653c0,290 -235,524 -524,524 -290,0 -524,-235 -524,-524 0,-290 235,-524 524,-524 290,0 524,235 524,524z"/>
  <path class="fil1 str0" d="M2344 654c0,290 -235,524 -524,524 -290,0 -524,-235 -524,-524 0,-290 235,-524 524,-524 290,0 524,235 524,524z"/>
  <path class="fil1 str0" d="M3514 653c0,290 -235,524 -524,524 -290,0 -524,-235 -524,-524 0,-290 235,-524 524,-524 290,0 524,235 524,524z"/>
  <path class="fil2" d="M2864 662l202 0 -102 -303 -100 303zm227 334l0 -21c41,0 62,-14 62,-43 0,-8 -2,-17 -5,-28l-67 -199 -230 0 -49 144c-12,36 -18,63 -18,79 0,30 19,46 57,47l0 21 -185 0 0 -21c26,-4 47,-12 62,-26 15,-14 30,-43 45,-86l198 -591 74 0 208 617c12,36 25,60 38,70 13,11 35,16 64,16l0 21 -252 0z"/>
  <path class="fil2" d="M967 845l21 0 -44 160 -519 0 0 -21c29,0 50,-9 63,-28 12,-19 19,-50 19,-94l0 -461c0,-40 -6,-67 -17,-83 -12,-16 -33,-23 -64,-23l0 -21 256 0 0 21c-28,0 -49,9 -61,27 -12,18 -19,47 -19,89l0 489c0,27 6,46 17,56 11,10 33,15 64,15l142 0c44,0 75,-8 92,-23 18,-16 34,-49 49,-101z"/>
  <path class="fil2" d="M1970 283l20 0 0 168 -21 0c-5,-46 -22,-83 -50,-109 -29,-26 -65,-39 -108,-39 -39,0 -70,10 -93,29 -24,20 -35,46 -35,78 0,30 10,58 29,82 20,25 62,57 127,96 76,45 127,85 153,118 26,34 39,72 39,116 0,56 -20,104 -60,144 -40,40 -88,60 -144,60 -32,0 -74,-9 -124,-27 -21,-7 -34,-11 -40,-11 -12,0 -21,9 -27,27l-21 0 0 -193 21 0c0,53 18,96 52,128 34,32 74,48 120,48 43,0 78,-12 104,-35 26,-23 39,-54 39,-93 0,-29 -11,-57 -32,-83 -22,-26 -67,-61 -135,-102 -56,-34 -93,-62 -112,-82 -19,-20 -32,-42 -41,-66 -9,-24 -13,-50 -13,-78 0,-55 18,-100 54,-134 36,-34 83,-51 141,-51 32,0 66,6 104,19 18,6 30,9 37,9 6,0 10,-1 12,-4 2,-2 4,-8 7,-16z"/>
 </g>
</svg>
